<svg width="4170" height="1020" viewBox="0 0 4170 1020" fill="none" xmlns="http://www.w3.org/2000/svg">
<path fill-rule="evenodd" clip-rule="evenodd" d="M510 10C321.45 10 227.15 10 168.6 68.6C115.4 121.75 110.5 204.3 110 360H60C46.7392 360 34.0214 365.268 24.6446 374.644C15.2678 384.022 10 396.74 10 410V460C10 467.762 11.8072 475.418 15.2786 482.36C18.75 489.304 23.7902 495.342 30 500L110 560C110.5 715.7 115.4 798.25 168.6 851.4C180.7 863.55 194.3 873.15 210 880.75V960C210 973.26 215.268 985.978 224.644 995.356C234.022 1004.73 246.74 1010 260 1010H335C348.26 1010 360.978 1004.73 370.356 995.356C379.732 985.978 385 973.26 385 960V909.1C421.35 910 462.7 910 510 910C557.3 910 598.65 910 635 909.1V960C635 973.26 640.268 985.978 649.644 995.356C659.022 1004.73 671.74 1010 685 1010H760C773.26 1010 785.978 1004.73 795.356 995.356C804.732 985.978 810 973.26 810 960V880.75C825.366 873.39 839.368 863.464 851.4 851.4C904.6 798.25 909.55 715.7 910 560L990 500C996.21 495.342 1001.25 489.304 1004.72 482.36C1008.19 475.418 1010 467.762 1010 460V410C1010 396.74 1004.73 384.022 995.356 374.644C985.978 365.268 973.26 360 960 360H910C909.5 204.3 904.6 121.75 851.4 68.6C792.85 10 698.55 10 510 10ZM335 535.775V583.655V673.74V763.825V831.4C335 842.446 343.954 851.4 355 851.4H510H665C676.046 851.4 685 842.446 685 831.4V763.825V575.9V535.775V485.8V435C685 435 834.912 410 834.646 335C834.38 260 835 153.95 813 132C791.1 110 755.75 110 685 110H335C264.3 110 228.95 110 207 132C185 153.9 185.354 264.25 185.354 335C185.354 405.75 335 435 335 435V485.8V535.775Z" fill="#E25353"/>
<path d="M1161.03 240.976C1161.03 225.478 1168.63 217.728 1183.85 217.728H1564.86C1580.08 217.728 1587.69 225.478 1587.69 240.976C1587.69 251.211 1587.39 261.592 1586.81 272.12C1586.52 282.355 1586.37 292.736 1586.37 303.263C1586.08 309.404 1586.08 315.691 1586.37 322.125C1586.66 328.265 1586.52 334.406 1585.93 340.547C1585.05 355.461 1577.44 362.918 1563.1 362.918H1459.95C1455.27 362.918 1452.93 365.257 1452.93 369.936C1452.93 396.547 1452.78 423.157 1452.49 449.768C1452.49 476.379 1452.49 502.99 1452.49 529.602C1452.49 578.142 1452.64 626.686 1452.93 675.229C1453.51 723.773 1453.81 772.316 1453.81 820.857C1453.81 836.064 1446.2 843.667 1430.98 843.667H1309.83C1294.91 843.667 1287.44 836.064 1287.44 820.857C1287.44 772.316 1287.59 723.773 1287.88 675.229C1288.47 626.686 1288.76 578.142 1288.76 529.602C1288.76 502.99 1288.61 476.379 1288.32 449.768C1288.32 423.157 1288.32 396.547 1288.32 369.936C1288.32 365.257 1285.83 362.918 1280.86 362.918H1185.61C1171.27 362.918 1163.66 355.461 1162.78 340.547C1162.49 334.406 1162.34 328.265 1162.34 322.125C1162.64 315.691 1162.64 309.404 1162.34 303.263C1162.34 292.736 1162.05 282.355 1161.46 272.12C1161.17 261.592 1161.03 251.211 1161.03 240.976ZM1760.63 416.871C1771.17 416.871 1777.02 420.526 1778.19 427.836C1779.65 435.148 1780.97 442.751 1782.14 450.646C1782.44 451.816 1782.88 454.593 1783.46 458.98C1784.04 463.074 1785.36 465.122 1787.41 465.122C1789.46 465.122 1791.65 463.659 1793.99 460.735C1796.33 457.517 1797.94 455.325 1798.82 454.154C1811.41 437.487 1826.62 425.79 1844.47 419.064C1862.62 412.338 1881.93 408.975 1902.42 408.975C1907.98 408.975 1915.29 409.268 1924.36 409.852C1933.43 410.145 1941.63 411.899 1948.94 415.116C1956.26 418.04 1959.92 423.303 1959.92 430.908C1959.92 434.417 1958.6 441.58 1955.97 452.401C1953.63 462.927 1950.7 474.77 1947.19 487.929C1943.97 501.089 1940.75 513.37 1937.53 524.776C1934.6 536.18 1932.56 544.221 1931.39 548.9C1928.17 561.475 1921 567.763 1909.88 567.763C1905.49 567.763 1901.24 567.47 1897.15 566.885C1893.05 566.007 1888.81 565.568 1884.42 565.568C1862.18 565.568 1844.18 573.173 1830.43 588.378C1816.67 603.586 1806.72 621.86 1800.58 643.207C1794.43 664.554 1791.36 684.441 1791.36 702.864V821.296C1791.36 836.21 1783.9 843.667 1768.97 843.667H1659.67C1644.75 843.667 1637.29 836.064 1637.29 820.857C1637.29 774.362 1637.58 727.866 1638.17 681.371C1639.04 634.873 1639.48 588.378 1639.48 541.883C1639.48 524.63 1639.34 507.523 1639.04 490.563C1639.04 473.602 1639.04 456.642 1639.04 439.681C1639.04 424.474 1646.65 416.871 1661.87 416.871H1760.63ZM2160.96 855.948C2118.82 855.948 2084.14 845.422 2056.93 824.365C2030 803.311 2010.1 775.971 1997.23 742.34C1984.35 708.711 1977.91 672.891 1977.91 634.873C1977.91 595.981 1984.65 559.136 1998.11 524.337C2011.57 489.246 2032.2 460.735 2060 438.803C2087.8 416.578 2123.35 405.466 2166.66 405.466C2207.92 405.466 2245.67 417.748 2279.91 442.312C2282.25 444.067 2284.16 444.943 2285.62 444.943C2288.84 444.943 2291.18 442.604 2292.64 437.925C2294.11 433.246 2296.16 428.567 2298.79 423.888C2301.71 419.21 2306.69 416.871 2313.71 416.871H2418.62C2433.84 416.871 2441.45 424.474 2441.45 439.681C2441.45 456.349 2441.3 473.017 2441.01 489.685C2441.01 506.06 2441.01 522.582 2441.01 539.25C2441.01 571.125 2441.15 603.001 2441.45 634.873C2441.74 666.456 2442.18 698.185 2442.76 730.058C2443.06 745.266 2443.35 760.471 2443.64 775.678C2444.23 790.591 2444.52 805.652 2444.52 820.857C2444.52 836.064 2437.06 843.667 2422.13 843.667H2307.57C2300.54 843.667 2296.74 840.889 2296.15 835.333C2295.57 829.776 2295.57 824.365 2296.15 819.104C2296.74 813.547 2294.98 810.77 2290.89 810.77C2288.84 810.77 2286.2 812.084 2282.99 814.717C2264.55 828.169 2245.38 838.402 2225.48 845.422C2205.58 852.44 2184.08 855.948 2160.96 855.948ZM2213.19 712.513C2228.7 712.513 2243.77 709.735 2258.41 704.179C2273.04 698.332 2284.89 688.681 2293.96 675.229V567.324C2284.89 554.457 2272.45 545.392 2256.65 540.128C2241.14 534.866 2225.78 532.232 2210.56 532.232C2184.81 532.232 2164.61 541.883 2149.98 561.182C2135.35 580.483 2128.04 602.123 2128.04 626.101C2128.04 650.081 2136.23 670.55 2152.62 687.511C2169 704.179 2189.2 712.513 2213.19 712.513ZM2730.28 849.37C2705.4 804.335 2680.53 759.303 2655.66 714.268C2630.78 668.941 2606.05 623.762 2581.47 578.728C2569.77 557.381 2557.77 536.034 2545.48 514.687C2533.48 493.34 2521.78 471.846 2510.36 450.207C2508.9 447.284 2507.44 444.358 2505.97 441.434C2504.8 438.218 2504.22 435.002 2504.22 431.783C2504.22 425.059 2507.29 420.965 2513.44 419.502C2519.58 417.748 2525.14 416.871 2530.12 416.871H2656.53C2665.9 416.871 2672.92 421.55 2677.6 430.908C2680.53 436.17 2683.02 441.873 2685.07 448.015C2687.11 453.862 2689.31 459.565 2691.65 465.122C2697.5 480.034 2703.36 494.949 2709.21 509.861C2715.06 524.776 2721.2 539.542 2727.64 554.165C2728.23 555.335 2729.11 557.234 2730.28 559.868C2731.45 562.206 2732.91 563.376 2734.67 563.376C2736.42 563.376 2737.89 562.06 2739.06 559.429C2740.23 556.795 2740.96 554.896 2741.25 553.726C2747.1 538.228 2752.37 522.582 2757.05 506.792C2762.03 490.709 2767.15 474.77 2772.42 458.98C2773.88 454.886 2775.2 450.5 2776.37 445.82C2777.83 440.849 2779.59 436.316 2781.63 432.222C2783.98 427.251 2786.61 423.449 2789.54 420.819C2792.46 418.186 2797 416.871 2803.14 416.871H2918.15C2923.12 416.871 2928.54 417.748 2934.39 419.502C2940.54 421.258 2943.61 425.498 2943.61 432.222C2943.61 435.148 2943.02 438.218 2941.85 441.434C2940.98 444.358 2939.8 447.137 2938.34 449.768C2927.51 471.115 2916.39 492.608 2904.98 514.248C2893.86 535.595 2882.74 557.088 2871.62 578.728C2848.5 623.762 2825.38 668.941 2802.27 714.268C2779.15 759.303 2755.88 804.335 2732.47 849.37H2730.28ZM3090.22 333.09C3066.22 333.09 3046.47 324.61 3030.96 307.649C3015.74 290.689 3008.13 270.658 3008.13 247.556C3008.13 225.624 3016.47 206.47 3033.15 190.094C3050.13 173.718 3069.44 165.53 3091.1 165.53C3113.92 165.53 3133.23 174.157 3149.04 191.41C3165.13 208.663 3173.18 228.548 3173.18 251.065C3173.18 273.289 3164.84 292.589 3148.16 308.965C3131.77 325.049 3112.46 333.09 3090.22 333.09ZM3015.59 534.866V439.242C3015.59 424.327 3023.06 416.871 3037.98 416.871H3134.11C3149.04 416.871 3156.5 424.327 3156.5 439.242C3156.5 502.698 3156.65 566.3 3156.94 630.048C3157.23 693.506 3157.38 757.108 3157.38 820.857C3157.38 836.064 3149.77 843.667 3134.55 843.667H3037.1C3021.89 843.667 3014.28 836.064 3014.28 820.857C3014.28 773.191 3014.43 725.526 3014.72 677.86C3015.3 630.194 3015.59 582.529 3015.59 534.866ZM3235.51 633.12C3235.51 588.963 3244.43 549.778 3262.29 515.565C3280.14 481.058 3305.45 454.008 3338.23 434.417C3371.29 414.824 3410.36 405.027 3455.43 405.027C3499.9 405.027 3537.66 414.824 3568.67 434.417C3599.99 454.008 3623.84 480.766 3640.22 514.687C3656.61 548.315 3664.8 586.479 3664.8 629.173C3664.8 673.327 3656.61 712.513 3640.22 746.726C3624.13 780.65 3600.28 807.405 3568.67 826.999C3537.07 846.297 3498.3 855.948 3452.35 855.948C3383.88 855.948 3330.62 835.625 3292.57 794.977C3254.53 754.331 3235.51 700.377 3235.51 633.12ZM3388.27 624.348C3388.27 636.629 3390.17 649.788 3393.97 663.825C3398.07 677.86 3404.65 689.852 3413.72 699.792C3422.8 709.443 3434.79 714.268 3449.72 714.268C3466.4 714.268 3479.27 709.443 3488.35 699.792C3497.42 690.144 3503.71 678.299 3507.22 664.264C3510.73 649.935 3512.49 636.044 3512.49 622.592C3512.49 609.725 3510.59 596.566 3506.78 583.114C3503.27 569.662 3497.13 558.405 3488.35 549.339C3479.57 540.274 3467.42 535.741 3451.91 535.741C3436.11 535.741 3423.53 540.42 3414.16 549.778C3405.09 558.844 3398.51 570.247 3394.41 583.992C3390.32 597.736 3388.27 611.188 3388.27 624.348ZM3849.6 416.871C3857.79 416.871 3863.8 419.941 3867.6 426.083C3871.4 432.222 3874.05 439.388 3875.51 447.576C3877.26 455.471 3878.72 462.488 3879.88 468.63C3881.06 474.77 3883.24 477.842 3886.48 477.842C3888.23 477.842 3889.69 477.111 3890.87 475.648C3892.34 474.187 3893.49 472.871 3894.37 471.7C3911.34 450.061 3929.94 433.539 3950.13 422.135C3970.6 410.73 3994.74 405.027 4022.56 405.027C4046.83 405.027 4069.08 410.145 4089.26 420.38C4109.45 430.616 4125.56 445.089 4137.55 463.805C4149.85 482.229 4155.99 504.015 4155.99 529.163C4155.99 561.913 4156.15 594.813 4156.43 627.856C4156.71 660.607 4157.17 693.506 4157.74 726.55C4158.05 742.34 4158.33 758.132 4158.61 773.923C4159.2 789.713 4159.51 805.359 4159.51 820.857C4159.51 836.064 4151.88 843.667 4136.68 843.667H4030.01C4015.09 843.667 4007.64 836.21 4007.64 821.296L4006.3 587.939C4006.3 573.027 4002.94 561.621 3996.21 553.726C3989.79 545.538 3978.66 541.444 3962.84 541.444C3941.5 541.444 3924.96 548.754 3913.24 563.376C3901.56 577.999 3893.21 596.859 3888.23 619.961C3883.24 643.061 3880.34 667.48 3879.44 693.214C3878.88 718.947 3878.88 743.364 3879.44 766.466C3880.03 789.276 3879.88 807.551 3879.01 821.296C3878.13 836.21 3870.68 843.667 3856.64 843.667H3748.66C3733.73 843.667 3726.26 836.064 3726.26 820.857C3726.26 805.652 3726.41 790.591 3726.7 775.678C3727.28 760.471 3727.72 745.266 3728.01 730.058C3728.6 698.185 3729.03 666.456 3729.34 634.873C3729.62 603.001 3729.78 571.125 3729.78 539.25C3729.78 522.874 3729.47 506.353 3728.9 489.685C3728.6 472.724 3728.75 456.056 3729.34 439.681C3729.62 424.474 3737.23 416.871 3752.15 416.871H3849.6Z" fill="#E25354"/>
</svg>
