<svg width="20" height="20" viewBox="0 0 20 20" fill="none" xmlns="http://www.w3.org/2000/svg">
<path d="M11 16.6671C11.0897 16.6636 11.1792 16.6783 11.2631 16.7102C11.347 16.7421 11.4236 16.7906 11.4882 16.8529C11.5529 16.9151 11.6044 16.9898 11.6396 17.0724C11.6747 17.155 11.6928 17.2438 11.6928 17.3336C11.6928 17.4233 11.6747 17.5122 11.6396 17.5948C11.6044 17.6774 11.5529 17.752 11.4882 17.8142C11.4236 17.8765 11.347 17.925 11.2631 17.9569C11.1792 17.9889 11.0897 18.0035 11 18.0001C10.8231 18.0001 10.6534 17.9298 10.5284 17.8047C10.4033 17.6796 10.333 17.51 10.333 17.3331C10.333 17.1562 10.4033 16.9865 10.5284 16.8614C10.6534 16.7363 10.8231 16.6671 11 16.6671ZM8.667 16.0001C8.7567 15.9966 8.84618 16.0112 8.93007 16.0432C9.01397 16.0751 9.09055 16.1236 9.15524 16.1859C9.21993 16.2481 9.2714 16.3228 9.30655 16.4054C9.3417 16.488 9.35982 16.5768 9.35982 16.6666C9.35982 16.7563 9.3417 16.8452 9.30655 16.9278C9.2714 17.0104 9.21993 17.085 9.15524 17.1472C9.09055 17.2095 9.01397 17.258 8.93007 17.2899C8.84618 17.3219 8.7567 17.3365 8.667 17.3331C8.4947 17.3264 8.33168 17.2532 8.21214 17.129C8.0926 17.0047 8.02582 16.839 8.02582 16.6666C8.02582 16.4941 8.0926 16.3284 8.21214 16.2041C8.33168 16.0799 8.4947 16.0067 8.667 16.0001ZM13.333 16.0001C13.4227 15.9966 13.5122 16.0112 13.5961 16.0432C13.68 16.0751 13.7566 16.1236 13.8212 16.1859C13.8859 16.2481 13.9374 16.3228 13.9726 16.4054C14.0077 16.488 14.0258 16.5768 14.0258 16.6666C14.0258 16.7563 14.0077 16.8452 13.9726 16.9278C13.9374 17.0104 13.8859 17.085 13.8212 17.1472C13.7566 17.2095 13.68 17.258 13.5961 17.2899C13.5122 17.3219 13.4227 17.3365 13.333 17.3331C13.1607 17.3264 12.9977 17.2532 12.8781 17.129C12.7586 17.0047 12.6918 16.839 12.6918 16.6666C12.6918 16.4941 12.7586 16.3284 12.8781 16.2041C12.9977 16.0799 13.1607 16.0067 13.333 16.0001ZM11 6.00006C13.464 6.00006 14.863 7.57306 15.066 9.47406H15.128C16.714 9.47406 18 10.7111 18 12.2371C18 13.7631 16.714 15.0001 15.128 15.0001H6.872C5.286 15.0001 4 13.7631 4 12.2371C4 10.7111 5.286 9.47406 6.872 9.47406H6.934C7.138 7.56006 8.535 6.00006 11 6.00006ZM3.803 8.70006C3.84144 8.81093 3.83967 8.93178 3.79799 9.04147C3.7563 9.15116 3.67737 9.2427 3.575 9.30006L3.493 9.33606L2.692 9.61206C2.57379 9.65342 2.44437 9.64892 2.32932 9.59944C2.21427 9.54997 2.12198 9.45912 2.0707 9.34486C2.01942 9.23061 2.01288 9.10127 2.05237 8.98243C2.09187 8.86358 2.17453 8.76389 2.284 8.70306L2.366 8.66706L3.168 8.39106C3.29332 8.34805 3.43058 8.35655 3.54964 8.41467C3.6687 8.4728 3.75983 8.5758 3.803 8.70106M8.92 4.50006C9.252 4.66206 9.545 4.87306 9.793 5.12006C8.031 5.48406 6.763 6.65306 6.25 8.27606L6.185 8.50006L6.139 8.68706L5.973 8.71706C5.52963 8.80923 5.10631 8.97992 4.723 9.22106C4.33648 8.61897 4.15742 7.90702 4.21313 7.19372C4.26883 6.48041 4.55624 5.80488 5.03155 5.27011C5.50686 4.73533 6.14399 4.37063 6.84583 4.23161C7.54767 4.09258 8.27572 4.18686 8.919 4.50006M2.916 4.67006L3 4.70206L3.762 5.07306C3.87434 5.12767 3.96216 5.22234 4.0082 5.33845C4.05424 5.45456 4.05515 5.5837 4.01076 5.70045C3.96636 5.81719 3.87988 5.9131 3.76833 5.96929C3.65678 6.02548 3.52824 6.03788 3.408 6.00406L3.323 5.97206L2.562 5.60106C2.44967 5.54645 2.36184 5.45178 2.3158 5.33567C2.26977 5.21956 2.26885 5.09042 2.31325 4.97367C2.35764 4.85692 2.44412 4.76102 2.55567 4.70483C2.66722 4.64864 2.79576 4.63623 2.916 4.67006ZM9.989 2.29506C10.0943 2.34643 10.1782 2.43314 10.2261 2.54005C10.274 2.64697 10.2828 2.7673 10.251 2.88006L10.219 2.96406L9.848 3.72606C9.79339 3.83839 9.69872 3.92622 9.58261 3.97226C9.4665 4.01829 9.33736 4.01921 9.22061 3.97481C9.10387 3.93042 9.00796 3.84394 8.95177 3.73239C8.89558 3.62084 8.88318 3.4923 8.917 3.37206L8.949 3.28706L9.32 2.52506C9.3488 2.46588 9.389 2.41297 9.43829 2.36937C9.48758 2.32576 9.545 2.29231 9.60725 2.27094C9.66949 2.24958 9.73535 2.24071 9.80103 2.24484C9.86671 2.24898 9.92993 2.26605 9.989 2.29506ZM6.2 2.26306L6.237 2.34506L6.513 3.14706C6.55357 3.26511 6.54852 3.39408 6.49883 3.50859C6.44914 3.62311 6.35841 3.7149 6.24447 3.76591C6.13054 3.81692 6.00164 3.82347 5.88313 3.78427C5.76461 3.74507 5.66504 3.66295 5.604 3.55406L5.567 3.47206L5.292 2.67106C5.25207 2.55328 5.25746 2.42485 5.30712 2.31083C5.35678 2.19681 5.44715 2.1054 5.56059 2.05442C5.67403 2.00345 5.80239 1.99658 5.92062 2.03516C6.03885 2.07374 6.13846 2.15499 6.2 2.26306Z" fill="black"/>
</svg>
