<svg width="16" height="16" viewBox="0 0 16 16" fill="none" xmlns="http://www.w3.org/2000/svg">
<path d="M6.07503 14.0063V13.5813C6.0844 13.547 6.10003 13.5157 6.10628 13.4813C6.24378 12.5876 6.98753 11.8813 7.85939 11.822C8.83439 11.7532 9.65939 12.3095 9.92814 13.2157C9.96251 13.3345 9.98751 13.4594 10.0188 13.5813V14.0063C10.0094 14.0344 9.99376 14.0594 9.99064 14.0907C9.85626 14.9157 9.26251 15.5438 8.45001 15.7219C8.38751 15.7344 8.32501 15.7532 8.26251 15.7688H7.83751C7.80939 15.7594 7.78126 15.7438 7.75314 15.7407C6.94064 15.6094 6.3219 15.0313 6.13439 14.2282C6.11564 14.1501 6.09378 14.0782 6.07503 14.0063ZM10.0188 1.99386L10.0188 2.41889C10.0094 2.45326 9.99376 2.48451 9.99064 2.51889C9.85001 3.41889 9.10314 4.12201 8.22189 4.17826C7.25001 4.24076 6.42814 3.67826 6.16251 2.76889C6.12814 2.65325 6.10314 2.53451 6.07501 2.41887V1.99387C6.08439 1.96575 6.10001 1.94075 6.10626 1.91262C6.25626 1.10012 6.72814 0.568872 7.51564 0.315747C7.61876 0.281372 7.72814 0.262622 7.83439 0.234497H8.25939C8.28751 0.243872 8.31564 0.259497 8.34376 0.262622C9.15939 0.396997 9.77501 0.971997 9.96251 1.77512C9.98128 1.85012 10 1.922 10.0188 1.99386ZM10.0188 7.78762V8.21262C10.0094 8.247 9.99376 8.27825 9.98751 8.31262C9.84689 9.2095 9.07189 9.93137 8.19689 9.96887C7.21251 10.0126 6.37814 9.41887 6.14376 8.50325C6.11876 8.40637 6.09689 8.3095 6.07501 8.21262V7.78762C6.08439 7.75325 6.10001 7.722 6.10626 7.68762C6.24376 6.79075 7.02189 6.06886 7.89689 6.02825C8.88126 5.98137 9.71564 6.57825 9.95001 7.49387C9.97501 7.59387 9.99689 7.69075 10.0188 7.78762Z" fill="black"/>
</svg>
