<svg width="18" height="18" viewBox="0 0 18 18" fill="none" xmlns="http://www.w3.org/2000/svg">
<path d="M9 12.2143C9.85248 12.2143 10.67 11.8756 11.2728 11.2728C11.8756 10.67 12.2143 9.85248 12.2143 9C12.2143 8.14752 11.8756 7.32995 11.2728 6.72716C10.67 6.12436 9.85248 5.78571 9 5.78571C8.14752 5.78571 7.32995 6.12436 6.72716 6.72716C6.12436 7.32995 5.78571 8.14752 5.78571 9C5.78571 9.85248 6.12436 10.67 6.72716 11.2728C7.32995 11.8756 8.14752 12.2143 9 12.2143ZM9.96429 0.964286C9.96429 0.708541 9.86269 0.463271 9.68185 0.282433C9.50101 0.101594 9.25574 0 9 0C8.74426 0 8.49899 0.101594 8.31815 0.282433C8.13731 0.463271 8.03571 0.708541 8.03571 0.964286V2.64343C6.67911 2.84911 5.4239 3.48345 4.45368 4.45368C3.48345 5.4239 2.84911 6.67911 2.64343 8.03571H0.964286C0.708541 8.03571 0.463271 8.13731 0.282433 8.31815C0.101594 8.49899 0 8.74426 0 9C0 9.25574 0.101594 9.50101 0.282433 9.68185C0.463271 9.86269 0.708541 9.96429 0.964286 9.96429H2.64343C2.84911 11.3209 3.48345 12.5761 4.45368 13.5463C5.4239 14.5165 6.67911 15.1509 8.03571 15.3566V17.0357C8.03571 17.2915 8.13731 17.5367 8.31815 17.7176C8.49899 17.8984 8.74426 18 9 18C9.25574 18 9.50101 17.8984 9.68185 17.7176C9.86269 17.5367 9.96429 17.2915 9.96429 17.0357V15.3566C11.3209 15.1509 12.5761 14.5165 13.5463 13.5463C14.5165 12.5761 15.1509 11.3209 15.3566 9.96429H17.0357C17.2915 9.96429 17.5367 9.86269 17.7176 9.68185C17.8984 9.50101 18 9.25574 18 9C18 8.74426 17.8984 8.49899 17.7176 8.31815C17.5367 8.13731 17.2915 8.03571 17.0357 8.03571H15.3566C15.1509 6.67911 14.5165 5.4239 13.5463 4.45368C12.5761 3.48345 11.3209 2.84911 9.96429 2.64343V0.964286ZM9 13.5C7.80653 13.5 6.66193 13.0259 5.81802 12.182C4.97411 11.3381 4.5 10.1935 4.5 9C4.5 7.80653 4.97411 6.66193 5.81802 5.81802C6.66193 4.97411 7.80653 4.5 9 4.5C10.1935 4.5 11.3381 4.97411 12.182 5.81802C13.0259 6.66193 13.5 7.80653 13.5 9C13.5 10.1935 13.0259 11.3381 12.182 12.182C11.3381 13.0259 10.1935 13.5 9 13.5Z" fill="black"/>
</svg>
