<svg width="16" height="18" viewBox="0 0 16 18" fill="none" xmlns="http://www.w3.org/2000/svg">
<path d="M4.42412 10.9891C4.76283 10.9891 5.08766 10.8546 5.32716 10.6151C5.56666 10.3756 5.70121 10.0507 5.70121 9.71203C5.70121 9.37332 5.56666 9.04849 5.32716 8.80899C5.08766 8.56949 4.76283 8.43494 4.42412 8.43494C4.08542 8.43494 3.76059 8.56949 3.52108 8.80899C3.28158 9.04849 3.14703 9.37332 3.14703 9.71203C3.14703 10.0507 3.28158 10.3756 3.52108 10.6151C3.76059 10.8546 4.08542 10.9891 4.42412 10.9891ZM4.42412 14.565C4.76283 14.565 5.08766 14.4304 5.32716 14.1909C5.56666 13.9514 5.70121 13.6266 5.70121 13.2879C5.70121 12.9492 5.56666 12.6243 5.32716 12.3848C5.08766 12.1453 4.76283 12.0108 4.42412 12.0108C4.08542 12.0108 3.76059 12.1453 3.52108 12.3848C3.28158 12.6243 3.14703 12.9492 3.14703 13.2879C3.14703 13.6266 3.28158 13.9514 3.52108 14.1909C3.76059 14.4304 4.08542 14.565 4.42412 14.565ZM9.27707 9.71203C9.27707 10.0507 9.14251 10.3756 8.90301 10.6151C8.66351 10.8546 8.33868 10.9891 7.99998 10.9891C7.66127 10.9891 7.33644 10.8546 7.09694 10.6151C6.85744 10.3756 6.72289 10.0507 6.72289 9.71203C6.72289 9.37332 6.85744 9.04849 7.09694 8.80899C7.33644 8.56949 7.66127 8.43494 7.99998 8.43494C8.33868 8.43494 8.66351 8.56949 8.90301 8.80899C9.14251 9.04849 9.27707 9.37332 9.27707 9.71203ZM7.99998 14.565C8.33868 14.565 8.66351 14.4304 8.90301 14.1909C9.14251 13.9514 9.27707 13.6266 9.27707 13.2879C9.27707 12.9492 9.14251 12.6243 8.90301 12.3848C8.66351 12.1453 8.33868 12.0108 7.99998 12.0108C7.66127 12.0108 7.33644 12.1453 7.09694 12.3848C6.85744 12.6243 6.72289 12.9492 6.72289 13.2879C6.72289 13.6266 6.85744 13.9514 7.09694 14.1909C7.33644 14.4304 7.66127 14.565 7.99998 14.565ZM12.8529 9.71203C12.8529 10.0507 12.7184 10.3756 12.4789 10.6151C12.2394 10.8546 11.9145 10.9891 11.5758 10.9891C11.2371 10.9891 10.9123 10.8546 10.6728 10.6151C10.4333 10.3756 10.2987 10.0507 10.2987 9.71203C10.2987 9.37332 10.4333 9.04849 10.6728 8.80899C10.9123 8.56949 11.2371 8.43494 11.5758 8.43494C11.9145 8.43494 12.2394 8.56949 12.4789 8.80899C12.7184 9.04849 12.8529 9.37332 12.8529 9.71203Z" fill="black"/>
<path fill-rule="evenodd" clip-rule="evenodd" d="M4.12903 0.77417C4.32153 0.77417 4.50614 0.850639 4.64225 0.986754C4.77837 1.12287 4.85484 1.30748 4.85484 1.49998V2.22578H11.1452V1.49998C11.1452 1.30748 11.2216 1.12287 11.3577 0.986754C11.4939 0.850639 11.6785 0.77417 11.871 0.77417C12.0635 0.77417 12.2481 0.850639 12.3842 0.986754C12.5203 1.12287 12.5968 1.30748 12.5968 1.49998V2.23352C12.7439 2.2374 12.881 2.24449 13.0081 2.25482C13.3758 2.28385 13.7203 2.34965 14.0465 2.51611C14.5473 2.77127 14.9545 3.17847 15.2097 3.67933C15.3761 4.00546 15.4419 4.34998 15.471 4.71772C15.5 5.07094 15.5 5.50159 15.5 6.01933V13.4322C15.5 13.95 15.5 14.3806 15.471 14.7338C15.4419 15.1016 15.3761 15.4461 15.2097 15.7722C14.9548 16.2729 14.5479 16.6801 14.0474 16.9355C13.7203 17.1019 13.3758 17.1677 13.0081 17.1967C12.6548 17.2258 12.2242 17.2258 11.7074 17.2258H4.29355C3.77581 17.2258 3.34516 17.2258 2.99194 17.1967C2.62419 17.1677 2.27968 17.1019 1.95355 16.9355C1.45298 16.6808 1.04582 16.2743 0.790323 15.7742C0.623871 15.4471 0.558065 15.1026 0.529032 14.7348C0.5 14.3816 0.5 13.9509 0.5 13.4342V6.01933C0.5 5.50159 0.5 5.07094 0.529032 4.71772C0.558065 4.34998 0.623871 4.00546 0.790323 3.67933C1.04549 3.17847 1.45269 2.77127 1.95355 2.51611C2.27968 2.34965 2.62419 2.28385 2.99194 2.25482C3.11903 2.24449 3.25613 2.2374 3.40323 2.23352V1.49998C3.40323 1.40466 3.422 1.31028 3.45847 1.22222C3.49495 1.13416 3.54841 1.05415 3.61581 0.986754C3.68321 0.919356 3.76322 0.865894 3.85128 0.829419C3.93934 0.792943 4.03372 0.77417 4.12903 0.77417ZM14.0484 7.54836H1.95161V13.4032C1.95161 13.9567 1.95161 14.3293 1.97581 14.6148C1.99806 14.8935 2.03871 15.0261 2.08323 15.1132C2.19935 15.3416 2.38419 15.5264 2.61258 15.6426C2.69968 15.6871 2.83226 15.7277 3.11 15.75C3.39645 15.7732 3.76806 15.7742 4.32258 15.7742H11.6774C12.231 15.7742 12.6035 15.7742 12.889 15.75C13.1677 15.7277 13.3003 15.6871 13.3874 15.6426C13.6154 15.5265 13.8007 15.3412 13.9168 15.1132C13.9613 15.0261 14.0019 14.8935 14.0242 14.6148C14.0474 14.3293 14.0484 13.9567 14.0484 13.4032V7.54836ZM6.54839 4.4032C6.35589 4.4032 6.17128 4.47967 6.03516 4.61579C5.89905 4.7519 5.82258 4.93651 5.82258 5.12901C5.82258 5.3215 5.89905 5.50612 6.03516 5.64223C6.17128 5.77835 6.35589 5.85481 6.54839 5.85481H9.45161C9.64411 5.85481 9.82872 5.77835 9.96483 5.64223C10.101 5.50612 10.1774 5.3215 10.1774 5.12901C10.1774 4.93651 10.101 4.7519 9.96483 4.61579C9.82872 4.47967 9.64411 4.4032 9.45161 4.4032H6.54839Z" fill="black"/>
</svg>
